<svg xmlns="http://www.w3.org/2000/svg" width="189pt" height="313pt" viewBox="0.00 0.00 189.02 313.22" xmlns:xlink="http://www.w3.org/1999/xlink">
<style>
a.external_repository_anchor {
  fill: #0366d6;
  text-decoration: underline;
}
</style><g id="graph0" class="graph" transform="scale(1 1) rotate(0) translate(4 309.22)">
<title>StringCompositionDependenciesGraph</title>
<polygon fill="white" stroke="transparent" points="-4,4 -4,-309.22 185.02,-309.22 185.02,4 -4,4" />

<g id="node1" class="node">
<title>Ranges</title>
<ellipse fill="none" stroke="black" cx="90.51" cy="-26.87" rx="40.11" ry="26.74" />
<text text-anchor="middle" x="90.51" y="-30.67" font-family="monospace" font-size="12px"><a href="https://github.com/YOCKOW/SwiftRanges.git" xlink:href="https://github.com/YOCKOW/SwiftRanges.git" class="external_repository_anchor">Ranges</a></text>
<text text-anchor="middle" x="90.51" y="-15.67" font-family="monospace" font-size="12px">@3.1.1</text>
</g>

<g id="node2" class="node">
<title>StringComposition</title>
<polygon fill="none" stroke="black" points="150.51,-305.22 30.51,-305.22 30.51,-269.22 150.51,-269.22 150.51,-305.22" />
<text text-anchor="middle" x="90.51" y="-283.52" font-family="monospace" font-size="12px">StringComposition</text>
</g>

<g id="node4" class="node">
<title>yExtensions</title>
<ellipse fill="none" stroke="black" cx="90.51" cy="-206.35" rx="58.88" ry="26.74" />
<text text-anchor="middle" x="90.51" y="-210.15" font-family="monospace" font-size="12px"><a href="https://github.com/YOCKOW/ySwiftExtensions.git" xlink:href="https://github.com/YOCKOW/ySwiftExtensions.git" class="external_repository_anchor">yExtensions</a></text>
<text text-anchor="middle" x="90.51" y="-195.15" font-family="monospace" font-size="12px">@1.5.3</text>
</g>

<g id="edge1" class="edge">
<title>StringComposition-&gt;yExtensions</title>
<path fill="none" stroke="black" d="M90.51,-269.11C90.51,-261.62 90.51,-252.53 90.51,-243.65" />
<polygon fill="black" stroke="black" points="94.01,-243.43 90.51,-233.43 87.01,-243.43 94.01,-243.43" />
</g>

<g id="node3" class="node">
<title>UnicodeSupplement</title>
<ellipse fill="none" stroke="black" cx="90.51" cy="-116.61" rx="90.52" ry="26.74" />
<text text-anchor="middle" x="90.51" y="-120.41" font-family="monospace" font-size="12px"><a href="https://github.com/YOCKOW/SwiftUnicodeSupplement.git" xlink:href="https://github.com/YOCKOW/SwiftUnicodeSupplement.git" class="external_repository_anchor">UnicodeSupplement</a></text>
<text text-anchor="middle" x="90.51" y="-105.41" font-family="monospace" font-size="12px">@1.0.1</text>
</g>

<g id="edge2" class="edge">
<title>UnicodeSupplement-&gt;Ranges</title>
<path fill="none" stroke="black" d="M90.51,-89.29C90.51,-81.32 90.51,-72.43 90.51,-63.94" />
<polygon fill="black" stroke="black" points="94.01,-63.87 90.51,-53.87 87.01,-63.87 94.01,-63.87" />
</g>

<g id="edge3" class="edge">
<title>yExtensions-&gt;UnicodeSupplement</title>
<path fill="none" stroke="black" d="M90.51,-179.03C90.51,-171.06 90.51,-162.17 90.51,-153.68" />
<polygon fill="black" stroke="black" points="94.01,-153.61 90.51,-143.61 87.01,-153.61 94.01,-153.61" />
</g>
</g>
</svg>